<?xml version="1.0" standalone="no"?>
<!DOCTYPE svg PUBLIC "-//W3C//DTD SVG 20010904//EN"
 "http://www.w3.org/TR/2001/REC-SVG-20010904/DTD/svg10.dtd">
<svg version="1.0" xmlns="http://www.w3.org/2000/svg"
 width="608.000000pt" height="608.000000pt" viewBox="0 0 608.000000 608.000000"
 preserveAspectRatio="xMidYMid meet">
<metadata>
Created by potrace 1.14, written by Peter Selinger 2001-2017
</metadata>
<g transform="translate(0.000000,608.000000) scale(0.100000,-0.100000)"
fill="#000000" stroke="none">
<path d="M2366 5948 c-7 -18 -35 -78 -61 -133 -26 -55 -55 -118 -65 -140 -10
-22 -46 -98 -79 -169 -34 -70 -61 -130 -61 -131 0 -3 -63 -138 -135 -290 -32
-69 -67 -144 -110 -240 -13 -27 -46 -99 -75 -160 -29 -60 -63 -135 -77 -165
-14 -30 -41 -89 -60 -130 -20 -41 -60 -129 -91 -195 -30 -66 -76 -167 -103
-224 -27 -57 -49 -105 -49 -106 0 -2 -26 -59 -59 -127 -59 -125 -85 -181 -139
-298 -16 -36 -62 -135 -102 -220 -109 -234 -135 -291 -158 -340 l-20 -45 849
-3 c467 -1 849 -4 849 -6 0 -4 -134 -299 -206 -454 -19 -41 -34 -75 -34 -77 0
-2 -21 -47 -46 -102 -26 -54 -63 -136 -84 -183 -41 -92 -79 -177 -115 -255
-12 -27 -33 -72 -45 -100 -12 -27 -42 -92 -66 -144 -24 -51 -44 -95 -44 -96 0
-2 -50 -113 -111 -247 -143 -316 -133 -294 -164 -363 -15 -33 -41 -89 -57
-125 -17 -36 -42 -90 -55 -120 -48 -107 -66 -146 -93 -205 -94 -207 -110 -242
-110 -248 0 -4 314 -7 698 -7 l697 1 37 82 c21 45 58 127 84 182 25 55 56 123
69 150 12 28 34 75 48 105 14 30 44 96 67 145 43 91 76 163 129 278 16 34 45
98 66 142 20 44 48 105 62 135 35 78 63 138 127 274 31 65 56 119 56 121 0 1
27 60 60 129 33 70 60 128 60 130 0 2 24 55 54 117 29 63 66 141 81 174 78
172 129 281 136 290 5 7 218 10 623 10 l616 0 0 522 0 523 -1280 0 c-704 0
-1280 1 -1280 3 0 2 14 31 30 65 17 34 30 64 30 67 0 2 25 56 55 120 30 65 55
118 55 120 0 2 17 41 39 87 21 45 75 162 119 258 44 96 95 207 112 245 55 119
96 209 111 243 7 17 21 33 29 33 8 1 456 2 995 3 l980 1 3 563 2 562 -1390 0
-1390 0 -14 -32z"/>
</g>
</svg>
